# Blender v2.76 (sub 0) OBJ File: 'giraffe.blend'
# www.blender.org
mtllib giraffe.mtl
o Cube
v 2.000000 -1.000000 -1.000000
v 2.000000 -1.000000 1.000000
v -2.000000 -1.000000 1.000000
v -1.999999 -1.000000 -1.000000
v 2.000001 1.000000 -0.374999
v 1.999999 1.000000 0.375001
v -1.500001 0.500000 0.750000
v -1.500000 0.500000 -0.750000
v 0.000000 -1.000000 -1.000000
v -0.999999 -1.000000 -1.000000
v 1.000000 -1.000000 -1.000000
v 0.000000 -1.000000 1.000000
v -1.000000 -1.000000 1.000000
v 1.000000 -1.000000 1.000000
v 2.000000 -1.000000 0.000000
v 2.000000 -1.000000 0.500000
v 2.000000 -1.000000 -0.500000
v -2.000000 -1.000000 -0.000000
v -2.000000 -1.000000 -0.500000
v -2.000000 -1.000000 0.500000
v -0.999999 -1.000000 -1.000000
v -0.999999 -1.000000 -0.500000
v -1.000000 -1.000000 0.500000
v 1.000000 -1.000000 0.500000
v 1.000000 -1.000000 -0.500000
v -1.624999 -2.000000 -0.937500
v -0.874999 -2.000000 -0.937500
v -1.625000 -2.000000 -0.562500
v -0.874999 -2.000000 -0.562500
v -1.625000 -2.000000 0.937500
v -0.875000 -2.000000 0.937500
v -1.625000 -2.000000 0.562500
v -0.875000 -2.000000 0.562500
v 2.125000 -2.000000 0.937500
v 1.375000 -2.000000 0.937500
v 2.125000 -2.000000 0.562500
v 1.375000 -2.000000 0.562500
v 2.125000 -2.000000 -0.937500
v 1.375000 -2.000000 -0.937500
v 2.125000 -2.000000 -0.562500
v 1.375000 -2.000000 -0.562500
v -1.937499 -3.000000 -0.843750
v -1.562499 -3.000000 -0.843750
v -1.937499 -3.000000 -0.656250
v -1.562499 -3.000000 -0.656250
v -1.437500 -3.000000 0.843750
v -1.062500 -3.000000 0.843750
v -1.437500 -3.000000 0.656250
v -1.062500 -3.000000 0.656250
v 1.437500 -3.000000 0.843750
v 1.062500 -3.000000 0.843750
v 1.437500 -3.000000 0.656250
v 1.062500 -3.000000 0.656250
v 1.937500 -3.000000 -0.843750
v 1.562500 -3.000000 -0.843750
v 1.937500 -3.000000 -0.656250
v 1.562500 -3.000000 -0.656250
v 1.141809 0.965699 -0.374999
v 1.141807 0.965699 0.375001
v 2.535676 4.991425 -0.187499
v 2.535674 4.991425 0.187501
v 2.106580 4.974275 -0.187499
v 2.106579 4.974275 0.187501
v 2.535676 5.282934 -0.187499
v 2.535674 5.282934 0.187501
v 2.106580 5.265784 -0.187499
v 2.106579 5.265784 0.187501
v 3.035676 5.073061 -0.119607
v 3.035674 5.073061 0.119608
v 3.035676 5.201297 -0.119607
v 3.035674 5.201297 0.119608
v 2.535676 5.449249 -0.187499
v 2.535674 5.449249 0.187501
v 2.106580 5.432099 -0.187499
v 2.106579 5.432099 0.187501
v 2.535675 5.449249 0.000001
v 2.106579 5.432099 0.000001
v 2.321127 5.440674 -0.187499
v 2.321126 5.440674 0.187501
v 2.535675 5.449249 0.093751
v 2.106579 5.432099 0.093751
v 2.213853 5.436387 -0.187499
v 2.428401 5.444962 0.187501
v 2.535675 5.449249 -0.093749
v 2.106579 5.432099 -0.093749
v 2.428401 5.444962 -0.187499
v 2.213852 5.436387 0.187501
v 2.321126 5.440674 0.109140
v 2.213852 5.436387 0.109140
v 2.321127 5.440674 -0.098326
v 2.213853 5.436387 -0.098326
v 2.321127 5.541979 -0.187499
v 2.321126 5.541979 0.187501
v 2.213853 5.537692 -0.187499
v 2.213852 5.537692 0.187501
v 2.321126 5.541979 0.109140
v 2.213852 5.537692 0.109140
v 2.321127 5.541979 -0.098326
v 2.213853 5.537692 -0.098326
vt 0.060230 0.404329
vt 0.048269 0.212967
vt 0.096110 0.212967
vt 0.240134 0.529627
vt 0.288329 0.384242
vt 0.384010 0.384476
vt 0.360091 0.777574
vt 0.336170 0.928859
vt 0.288330 0.928859
vt 0.193115 0.096109
vt 0.192648 0.000429
vt 0.338382 0.047559
vt 0.143951 0.212966
vt 0.191791 0.212966
vt 0.131991 0.404329
vt 0.000429 0.212967
vt 0.479691 0.384242
vt 0.575372 0.384009
vt 0.575861 0.584497
vt 0.192648 0.384009
vt 0.240489 0.928859
vt 0.192648 0.928859
vt 0.216569 0.777574
vt 0.384011 0.928859
vt 0.394071 0.383151
vt 0.193582 0.191789
vt 0.193582 0.383151
vt 0.193582 0.287470
vt 0.479692 0.728876
vt 0.479692 0.776717
vt 0.288330 0.776717
vt 0.288330 0.728876
vt 0.575374 0.728876
vt 0.575373 0.633195
vt 0.479692 0.633195
vt 0.479692 0.585354
vt 0.288330 0.585354
vt 0.288330 0.633195
vt 0.192648 0.633195
vt 0.192649 0.728876
vt 0.656058 0.935650
vt 0.559447 0.935650
vt 0.568330 0.864441
vt 0.682595 0.357346
vt 0.688575 0.260920
vt 0.724456 0.260920
vt 0.473884 0.353887
vt 0.394929 0.299842
vt 0.478688 0.240999
vt 0.931395 0.651598
vt 0.937375 0.549410
vt 0.973256 0.549410
vt 0.901188 0.645557
vt 0.807132 0.627998
vt 0.859996 0.540343
vt 0.384868 0.977110
vt 0.390848 0.874923
vt 0.426729 0.874923
vt 0.841903 0.385223
vt 0.829943 0.289356
vt 0.901704 0.289356
vt 0.931395 0.846229
vt 0.937382 0.749803
vt 0.973262 0.749806
vt 0.841903 0.192397
vt 0.829943 0.096529
vt 0.901704 0.096529
vt 0.617718 0.353887
vt 0.538762 0.299842
vt 0.622521 0.240999
vt 0.006409 0.116541
vt 0.042289 0.116541
vt 0.668760 0.822715
vt 0.674740 0.720527
vt 0.710621 0.720527
vt 0.668760 0.619425
vt 0.674740 0.517238
vt 0.710621 0.517238
vt 0.149930 0.116541
vt 0.185811 0.116540
vt 0.901188 0.842804
vt 0.807132 0.825246
vt 0.859996 0.737590
vt 0.000429 0.973742
vt 0.014792 0.878204
vt 0.083889 0.897577
vt 0.508296 0.144808
vt 0.537905 0.165075
vt 0.472229 0.858478
vt 0.697545 0.144808
vt 0.715485 0.144808
vt 0.946345 0.449166
vt 0.964286 0.449166
vt 0.847883 0.193255
vt 0.883763 0.193255
vt 0.399819 0.777574
vt 0.417759 0.777574
vt 0.946359 0.652455
vt 0.964299 0.652456
vt 0.895267 0.449166
vt 0.930538 0.455750
vt 0.683710 0.620283
vt 0.701651 0.620283
vt 0.015378 0.000429
vt 0.033319 0.000429
vt 0.895724 0.000429
vt 0.652129 0.144808
vt 0.681738 0.165075
vt 0.683710 0.419889
vt 0.701651 0.419889
vt 0.058009 0.790515
vt 0.092558 0.800201
vt 0.895267 0.646414
vt 0.930538 0.652998
vt 0.158900 0.019192
vt 0.176841 0.019192
vt 0.701651 0.384009
vt 0.683710 0.384009
vt 0.510129 0.372685
vt 0.474248 0.372685
vt 0.474248 0.354745
vt 0.507042 0.813454
vt 0.507042 0.777574
vt 0.524982 0.777574
vt 0.473391 0.372685
vt 0.437511 0.372685
vt 0.437511 0.354745
vt 0.733656 0.031857
vt 0.651598 0.036307
vt 0.394929 0.000429
vt 0.394929 0.143951
vt 0.651599 0.108069
vt 0.733652 0.112518
vt 0.114052 0.789657
vt 0.078171 0.789657
vt 0.667903 0.407497
vt 0.622992 0.790619
vt 0.583617 0.778875
vt 0.734514 0.449166
vt 0.806274 0.449166
vt 0.788334 0.843662
vt 0.749512 0.020954
vt 0.829085 0.000429
vt 0.819847 0.395226
vt 0.616094 0.817645
vt 0.576719 0.805901
vt 0.788334 0.871554
vt 0.752454 0.871555
vt 0.780060 0.405489
vt 0.825729 0.422490
vt 0.667840 0.810128
vt 0.664806 0.822017
vt 0.462951 0.826048
vt 0.462951 0.838318
vt 0.440063 0.838318
vt 0.469447 0.886792
vt 0.433566 0.886792
vt 0.785942 0.432753
vt 0.737101 0.435300
vt 0.734514 0.423306
vt 0.469447 0.777574
vt 0.440063 0.826048
vt 0.809192 0.443177
vt 0.451507 0.902705
vt 0.436018 0.354745
vt 0.416109 0.370645
vt 0.394929 0.354745
vt 0.770394 0.887468
vt 0.535744 0.800337
vt 0.535722 0.799913
vt 0.526857 0.811084
vt 0.543287 0.805618
vt 0.543695 0.792405
vt 0.536228 0.800006
vt 0.535881 0.799603
vt 0.526054 0.792405
vt 0.553666 0.798296
vt 0.561344 0.792674
vt 0.563273 0.806068
vt 0.553686 0.800040
vt 0.544767 0.806128
vt 0.544767 0.789673
vt 0.555886 0.798725
vt 0.546957 0.777574
vt 0.543910 0.777574
vt 0.477802 0.787846
vt 0.470304 0.787846
vt 0.470304 0.808391
vt 0.506185 0.787846
vt 0.497652 0.787846
vt 0.506185 0.808391
vt 0.477802 0.777574
vt 0.497652 0.777574
vt 0.394929 0.381775
vt 0.394929 0.371503
vt 0.430809 0.381775
vt 0.430809 0.371503
vt 0.667903 0.840705
vt 0.730436 0.357346
vt 0.537905 0.281533
vt 0.979236 0.651598
vt 0.930538 0.553511
vt 0.432709 0.977110
vt 0.937584 0.385223
vt 0.979236 0.846232
vt 0.937584 0.192397
vt 0.681738 0.281533
vt 0.716601 0.822715
vt 0.716601 0.619425
vt 0.930538 0.750759
vt 0.092558 0.999571
vt 0.476670 0.822874
vt 0.931604 0.000429
vt 0.510129 0.354745
vt 0.524982 0.813454
vt 0.473391 0.354745
vt 0.589152 0.384009
vt 0.752454 0.843662
vt 0.433566 0.777574
vt 0.789298 0.448309
vt 0.799245 0.445743
vt 0.829085 0.438046
vt 0.819139 0.440612
vt 0.433566 0.902705
vt 0.442536 0.902705
vt 0.469447 0.902705
vt 0.460477 0.902705
vt 0.395564 0.370645
vt 0.405836 0.370645
vt 0.436653 0.370645
vt 0.426381 0.370645
vt 0.752454 0.887468
vt 0.761424 0.887468
vt 0.788334 0.887468
vt 0.779364 0.887468
vt 0.551761 0.799788
vt 0.563534 0.780575
vt 0.525840 0.777574
vn 1.000000 0.000000 0.000000
vn 0.000000 0.164400 0.986400
vn -0.948700 0.316200 -0.000000
vn 0.000000 0.164400 -0.986400
vn -0.000000 0.298300 0.954500
vn 0.070700 0.232400 0.970000
vn 0.070700 0.232400 -0.970000
vn 0.000000 0.298300 -0.954500
vn 0.000000 1.000000 0.000000
vn 0.000000 -1.000000 0.000000
vn 0.000000 -0.062400 -0.998100
vn -0.992300 -0.124000 0.000000
vn -0.000000 -0.062400 0.998100
vn -0.936300 -0.351100 -0.000000
vn 0.992300 0.124000 0.000000
vn 0.936300 0.351100 0.000000
vn -0.000000 -0.093300 0.995600
vn 0.000000 -0.093300 -0.995600
vn -0.824000 0.566500 0.000000
vn -0.954500 0.298300 -0.000000
vn -0.982900 -0.184300 -0.000000
vn 0.982900 -0.184300 0.000000
vn 0.824000 -0.566500 0.000000
vn 0.982900 0.184300 0.000000
vn -0.028800 0.721000 0.692400
vn -0.028800 0.721000 -0.692400
vn -0.173600 0.984800 -0.000000
vn 0.991100 -0.133000 0.000000
vn -0.001900 0.047200 0.998900
vn -0.972200 0.234000 -0.000000
vn -0.001900 0.047200 -0.998900
vn 0.000000 0.000000 1.000000
vn -1.000000 0.000000 -0.000000
vn -0.000000 0.000000 -1.000000
vn 0.134600 0.000000 0.990900
vn 0.161100 0.986900 0.000000
vn 0.134600 0.000000 -0.990900
vn 0.161100 -0.986900 0.000000
vn -0.039900 0.999200 0.000000
vn 0.039900 -0.999200 0.000000
usemtl Material
s off
f 6/1/1 16/2/1 15/3/1
f 7/4/2 13/5/2 12/6/2
f 8/7/3 19/8/3 18/9/3
f 10/10/4 4/11/4 8/12/4
f 17/13/1 1/14/1 5/15/1
f 5/15/1 6/1/1 15/3/1
f 2/16/1 16/2/1 6/1/1
f 15/3/1 17/13/1 5/15/1
f 14/17/5 2/18/5 6/19/5
f 6/19/6 7/4/6 12/6/6
f 3/20/2 13/5/2 7/4/2
f 12/6/5 14/17/5 6/19/5
f 20/21/3 3/22/3 7/23/3
f 7/23/3 8/7/3 18/9/3
f 4/24/3 19/8/3 8/7/3
f 18/9/3 20/21/3 7/23/3
f 8/12/7 5/25/7 9/26/7
f 1/27/8 11/28/8 5/25/8
f 9/26/4 10/10/4 8/12/4
f 5/25/8 11/28/8 9/26/8
f 25/29/9 11/30/9 10/31/9
f 10/31/9 22/32/9 25/29/9
f 17/33/10 16/34/10 24/35/10
f 17/33/10 24/35/10 25/29/10
f 24/35/10 14/36/10 13/37/10
f 23/38/10 24/35/10 13/37/10
f 23/38/10 20/39/10 19/40/10
f 22/32/10 23/38/10 19/40/10
f 25/29/9 22/32/9 24/35/9
f 23/38/10 22/32/10 24/35/10
f 10/41/11 27/42/11 26/43/11
f 10/44/12 27/45/12 29/46/12
f 22/47/13 19/48/13 28/49/13
f 4/50/14 26/51/14 28/52/14
f 13/53/13 3/54/13 30/55/13
f 20/56/14 32/57/14 30/58/14
f 23/59/11 33/60/11 32/61/11
f 13/62/15 31/63/15 33/64/15
f 16/65/11 36/66/11 37/67/11
f 2/68/13 14/69/13 35/70/13
f 2/16/15 34/71/15 36/72/15
f 24/73/14 37/74/14 35/75/14
f 25/76/16 41/77/16 39/78/16
f 17/13/15 40/79/15 38/80/15
f 17/81/13 25/82/13 41/83/13
f 1/84/11 38/85/11 39/86/11
f 28/49/17 44/87/17 45/88/17
f 26/43/18 27/42/18 43/89/18
f 27/45/19 43/90/19 45/91/19
f 26/51/20 42/92/20 44/93/20
f 33/60/18 49/94/18 48/95/18
f 32/57/21 48/96/21 46/97/21
f 31/63/22 47/98/22 49/99/22
f 30/55/17 46/100/17 47/101/17
f 37/74/20 53/102/20 51/103/20
f 34/71/23 50/104/23 52/105/23
f 37/67/18 36/66/18 52/106/18
f 35/70/17 51/107/17 50/108/17
f 41/77/24 57/109/24 55/110/24
f 38/85/18 54/111/18 55/112/18
f 41/83/17 57/113/17 56/114/17
f 40/79/22 56/115/22 54/116/22
f 54/117/10 56/118/10 57/109/10
f 50/119/10 51/120/10 53/121/10
f 45/122/10 44/123/10 42/124/10
f 47/125/10 46/126/10 48/127/10
f 6/128/25 59/129/25 7/130/25
f 8/131/26 58/132/26 5/133/26
f 8/131/27 7/130/27 58/132/27
f 58/132/27 7/130/27 59/129/27
f 5/15/28 60/134/28 61/135/28
f 6/136/29 61/137/29 63/138/29
f 58/139/30 59/140/30 63/141/30
f 5/142/31 58/143/31 62/144/31
f 61/137/32 65/145/32 67/146/32
f 63/141/33 67/147/33 66/148/33
f 60/149/34 62/144/34 66/150/34
f 61/137/35 69/151/35 71/152/35
f 68/153/1 70/154/1 71/155/1
f 64/156/36 65/157/36 71/155/36
f 64/158/37 70/159/37 68/160/37
f 60/161/38 68/153/38 69/162/38
f 66/150/34 78/163/34 64/158/34
f 64/156/1 76/164/1 65/157/1
f 65/165/32 79/166/32 67/167/32
f 67/147/33 77/168/33 66/148/33
f 78/169/34 82/170/34 94/171/34
f 78/169/1 92/172/1 98/173/1
f 90/174/34 91/175/34 99/176/34
f 88/177/1 96/178/1 93/179/1
f 91/175/33 99/176/33 94/171/33
f 87/180/33 95/181/33 97/182/33
f 79/183/32 93/179/32 95/181/32
f 88/177/32 96/178/32 97/182/32
f 96/178/39 97/182/39 95/184/39
f 99/176/39 98/173/39 92/185/39
f 88/186/39 79/187/39 73/188/39
f 78/189/39 90/190/39 72/191/39
f 90/190/39 88/186/39 73/188/39
f 90/190/39 73/188/39 72/191/39
f 88/186/40 89/192/40 90/190/40
f 90/190/40 89/192/40 91/193/40
f 75/194/39 87/195/39 74/196/39
f 74/196/39 87/195/39 82/197/39
f 4/198/11 10/41/11 26/43/11
f 22/199/12 10/44/12 29/46/12
f 29/200/13 22/47/13 28/49/13
f 19/201/14 4/50/14 28/52/14
f 31/202/13 13/53/13 30/55/13
f 3/203/14 20/56/14 30/58/14
f 20/204/11 23/59/11 32/61/11
f 23/205/15 13/62/15 33/64/15
f 24/206/11 16/65/11 37/67/11
f 34/207/13 2/68/13 35/70/13
f 16/2/15 2/16/15 36/72/15
f 14/208/14 24/73/14 35/75/14
f 11/209/16 25/76/16 39/78/16
f 1/14/15 17/13/15 38/80/15
f 40/210/13 17/81/13 41/83/13
f 11/211/11 1/84/11 39/86/11
f 29/200/17 28/49/17 45/88/17
f 42/212/18 26/43/18 43/89/18
f 29/46/19 27/45/19 45/91/19
f 28/52/20 26/51/20 44/93/20
f 32/61/18 33/60/18 48/95/18
f 30/58/21 32/57/21 46/97/21
f 33/64/22 31/63/22 49/99/22
f 31/202/17 30/55/17 47/101/17
f 35/75/20 37/74/20 51/103/20
f 36/72/23 34/71/23 52/105/23
f 53/213/18 37/67/18 52/106/18
f 34/207/17 35/70/17 50/108/17
f 39/78/24 41/77/24 55/110/24
f 39/86/18 38/85/18 55/112/18
f 40/210/17 41/83/17 56/114/17
f 38/80/22 40/79/22 54/116/22
f 55/110/10 54/117/10 57/109/10
f 52/214/10 50/119/10 53/121/10
f 43/215/10 45/122/10 42/124/10
f 49/216/10 47/125/10 48/127/10
f 6/1/28 5/15/28 61/135/28
f 59/217/29 6/136/29 63/138/29
f 62/218/30 58/139/30 63/141/30
f 60/149/31 5/142/31 62/144/31
f 63/138/32 61/137/32 67/146/32
f 62/218/33 63/141/33 66/148/33
f 64/158/34 60/149/34 66/150/34
f 65/145/35 61/137/35 71/152/35
f 69/162/1 68/153/1 71/155/1
f 70/154/36 64/156/36 71/155/36
f 60/149/37 64/158/37 68/160/37
f 61/219/38 60/161/38 69/162/38
f 72/220/34 64/158/34 86/221/34
f 66/150/34 74/222/34 82/223/34
f 82/223/34 78/163/34 66/150/34
f 86/221/34 64/158/34 78/163/34
f 73/224/1 65/157/1 80/225/1
f 64/156/1 72/226/1 84/227/1
f 84/227/1 76/164/1 64/156/1
f 80/225/1 65/157/1 76/164/1
f 75/228/32 67/167/32 87/229/32
f 65/165/32 73/230/32 83/231/32
f 83/231/32 79/166/32 65/165/32
f 87/229/32 67/167/32 79/166/32
f 74/232/33 66/148/33 85/233/33
f 67/147/33 75/234/33 81/235/33
f 81/235/33 77/168/33 67/147/33
f 85/233/33 66/148/33 77/168/33
f 92/172/34 78/169/34 94/171/34
f 90/174/1 78/169/1 98/173/1
f 98/173/34 90/174/34 99/176/34
f 79/183/1 88/177/1 93/179/1
f 82/170/33 91/175/33 94/171/33
f 89/236/33 87/180/33 97/182/33
f 87/180/32 79/183/32 95/181/32
f 89/236/32 88/177/32 97/182/32
f 93/237/39 96/178/39 95/184/39
f 94/238/39 99/176/39 92/185/39
l 10 21
l 21 22
