# Blender v2.76 (sub 0) OBJ File: 'boxzombie.blend'
# www.blender.org
mtllib boxzombie.mtl
o Cube
v 1.000000 -3.000000 -1.000000
v 1.000000 -3.000000 1.000000
v -1.000000 -3.000000 1.000000
v -1.000000 -3.000000 -1.000000
v 1.000000 3.000000 -0.999999
v 0.999999 3.000000 1.000001
v -1.000000 3.000000 1.000000
v -1.000000 3.000000 -1.000000
v 1.000000 -3.000000 -1.000000
v -1.000000 -3.000000 -1.000000
v 1.000000 3.000000 -0.999999
vt 0.666627 0.333374
vt 0.666626 0.000121
vt 0.999879 0.000121
vt 0.999879 0.333373
vt 0.333374 0.333374
vt 0.000121 0.333374
vt 0.000121 0.000121
vt 0.333373 0.000121
vt 0.000121 0.666868
vt 0.000121 0.333615
vt 0.333373 0.333615
vt 0.333374 0.666868
vt 0.666626 0.333615
vt 0.666626 0.666868
vt 0.999879 0.333615
vt 0.999879 0.666868
vt 0.271684 0.667109
vt 0.543248 0.667109
vt 0.543248 0.671848
vt 0.271684 0.671849
vt 0.000121 0.667110
vt 0.000121 0.671849
vn 0.000000 -1.000000 0.000000
vn 0.000000 1.000000 0.000000
vn 1.000000 0.000000 0.000000
vn -0.000000 -0.000000 1.000000
vn -1.000000 -0.000000 -0.000000
vn 0.000000 0.000000 -1.000000
usemtl Material
s off
f 1/1/1 2/2/1 3/3/1 4/4/1
f 5/5/2 8/6/2 7/7/2 6/8/2
f 1/1/3 5/5/3 6/8/3 2/2/3
f 2/9/4 6/10/4 7/11/4 3/12/4
f 3/12/5 7/11/5 8/13/5 4/14/5
f 5/15/6 1/16/6 4/14/6 8/13/6
f 1/17/4 5/18/4 11/19/4 9/20/4
f 4/21/4 1/17/4 9/20/4 10/22/4
