# Blender v2.76 (sub 0) OBJ File: 'goodPig.blend'
# www.blender.org
mtllib goodPig.mtl
o Cube
v 2.000000 -1.000000 -1.000000
v 2.000000 -1.000000 1.000000
v -2.000000 -1.000000 1.000000
v -1.999999 -1.000000 -1.000000
v 2.000001 1.000000 -1.000000
v 1.999999 1.000000 1.000001
v -2.000001 1.000000 1.000000
v -2.000000 1.000000 -1.000000
v -2.000001 2.000000 1.000000
v -2.000000 2.000000 -1.000000
v -2.000000 -1.000000 -0.000000
v -2.000000 0.000000 1.000000
v -2.000000 0.000000 -1.000000
v -2.000000 1.000000 -0.000000
v -2.000000 0.000000 -0.000000
v -4.000001 1.000000 1.000000
v -4.000000 1.000000 -1.000000
v -4.000001 2.000000 1.000000
v -4.000000 2.000000 -1.000000
v -4.000000 0.000000 1.000000
v -4.000000 0.000000 -1.000000
v -4.000000 1.000000 -0.000000
v -4.000000 0.000000 -0.000000
v 0.000000 -1.000000 -1.000000
v 2.000000 -1.000000 0.000000
v 0.000000 -1.000000 1.000000
v 2.000000 -1.000000 0.500000
v -0.999999 -1.000000 -1.000000
v -1.000000 -1.000000 1.000000
v -2.000000 -1.000000 -0.500000
v -2.000000 -1.000000 0.500000
v 1.000000 -1.000000 -1.000000
v 2.000000 -1.000000 -0.500000
v 1.000000 -1.000000 1.000000
v -1.499999 -1.000000 -1.000000
v -1.500000 -1.000000 1.000000
v 0.500000 -1.000000 -1.000000
v 0.500000 -1.000000 1.000000
v -0.499999 -1.000000 -1.000000
v -0.500000 -1.000000 1.000000
v 1.500000 -1.000000 -1.000000
v 1.500000 -1.000000 1.000000
v 1.500000 -1.000000 -0.500000
v 2.000000 -3.000000 -1.000000
v 2.000000 -3.000000 -0.500000
v 1.500000 -3.000000 -1.000000
v 1.500000 -3.000000 -0.500000
v -1.500000 -1.000000 0.500000
v 1.500000 -1.000000 0.500000
v -1.499999 -1.000000 -0.500000
v 2.000000 -3.000000 1.000000
v 2.000000 -3.000000 0.500000
v 1.500000 -3.000000 1.000000
v 1.500000 -3.000000 0.500000
v -2.000000 -3.000000 1.000000
v -1.999999 -3.000000 -1.000000
v -2.000000 -3.000000 -0.500000
v -2.000000 -3.000000 0.500000
v -1.499999 -3.000000 -1.000000
v -1.500000 -3.000000 1.000000
v -1.500000 -3.000000 0.500000
v -1.499999 -3.000000 -0.500000
vt 0.000372 0.898512
vt 0.000372 0.798884
vt 0.398884 0.798884
vt 0.399628 0.398884
vt 0.449442 0.199628
vt 0.499256 0.199628
vt 0.000372 0.698512
vt 0.149814 0.598884
vt 0.000372 0.798140
vt 0.798884 0.600372
vt 0.798884 0.799628
vt 0.599628 0.799628
vt 0.199628 0.249442
vt 0.100000 0.398884
vt 0.000372 0.398884
vt 0.899256 0.400372
vt 0.899256 0.599628
vt 0.799628 0.599628
vt 0.898512 0.399628
vt 0.798884 0.399628
vt 0.798884 0.349814
vt 0.898512 0.300000
vt 0.798884 0.300000
vt 0.798884 0.250186
vt 0.998884 0.400372
vt 0.998884 0.599628
vt 0.499256 0.998140
vt 0.499256 0.898512
vt 0.598884 0.898512
vt 0.399628 0.798884
vt 0.598884 0.798884
vt 0.399628 0.898512
vt 0.699256 0.599628
vt 0.699256 0.400372
vt 0.798884 0.400372
vt 0.598884 0.698512
vt 0.399628 0.698512
vt 0.399628 0.598884
vt 0.598884 0.798140
vt 0.399628 0.798140
vt 0.599628 0.599628
vt 0.599628 0.400372
vt 0.900744 0.799628
vt 0.900744 0.600372
vt 0.950558 0.600372
vt 0.199628 0.000372
vt 0.398884 0.000372
vt 0.398884 0.050186
vt 0.549070 0.199628
vt 0.549070 0.000372
vt 0.598884 0.000372
vt 0.499256 0.000372
vt 0.799628 0.799628
vt 0.799628 0.600372
vt 0.849442 0.600372
vt 0.850186 0.799628
vt 0.850186 0.600372
vt 0.900000 0.600372
vt 0.349070 0.598884
vt 0.349070 0.399628
vt 0.398884 0.399628
vt 0.399628 0.199628
vt 0.399628 0.000372
vt 0.449442 0.000372
vt 0.599628 0.300000
vt 0.599628 0.349814
vt 0.599628 0.250186
vt 0.599628 0.399628
vt 0.000372 0.598884
vt 0.000372 0.399628
vt 0.050186 0.399628
vt 0.199628 0.349070
vt 0.398883 0.349070
vt 0.398883 0.398884
vt 0.949814 0.399628
vt 0.949814 0.200372
vt 0.999628 0.200372
vt 0.899256 0.399628
vt 0.899256 0.200372
vt 0.949070 0.200372
vt 0.599628 0.200372
vt 0.500000 0.497768
vt 0.450186 0.497768
vt 0.450186 0.447954
vt 0.449442 0.497768
vt 0.399628 0.497768
vt 0.399628 0.447954
vt 0.599628 0.800372
vt 0.649442 0.800372
vt 0.649442 0.850186
vt 0.550558 0.497768
vt 0.500744 0.497768
vt 0.500744 0.447954
vt 0.998139 0.149814
vt 0.998139 0.050186
vt 0.948325 0.050186
vt 0.649442 0.000372
vt 0.948325 0.000372
vt 0.948325 0.199628
vt 0.649442 0.199628
vt 0.649442 0.149814
vt 0.649442 0.050186
vt 0.599628 0.050186
vt 0.599628 0.149814
vt 0.399628 0.598140
vt 0.399628 0.498512
vt 0.598884 0.498512
vt 0.398884 0.998140
vt 0.000372 0.998140
vt 0.598884 0.199628
vt 0.598884 0.398884
vt 0.398884 0.598884
vt 0.398884 0.798140
vt 0.199628 0.598884
vt 0.050186 0.598884
vt 0.100000 0.598884
vt 0.249442 0.598884
vt 0.299256 0.598884
vt 0.599628 0.600372
vt 0.000372 0.000372
vt 0.199628 0.199628
vt 0.199628 0.050186
vt 0.199628 0.100000
vt 0.199628 0.149814
vt 0.199628 0.299256
vt 0.199628 0.398884
vt 0.799628 0.400372
vt 0.798884 0.200372
vt 0.898512 0.200372
vt 0.598884 0.998140
vt 0.399628 0.998140
vt 0.798884 0.599628
vt 0.598884 0.598884
vt 0.950558 0.799628
vt 0.849442 0.799628
vt 0.900000 0.799628
vt 0.999628 0.399628
vt 0.949070 0.399628
vt 0.500000 0.447954
vt 0.449442 0.447954
vt 0.599628 0.850186
vt 0.550558 0.447954
vt 0.948325 0.149814
vt 0.598884 0.598140
vn 0.000000 1.000000 0.000000
vn 1.000000 0.000000 0.000000
vn -0.000000 0.000000 1.000000
vn 0.000000 0.000000 -1.000000
vn -1.000000 -0.000000 -0.000000
vn 0.000000 -1.000000 0.000000
usemtl Material
s off
f 14/1/1 7/2/1 6/3/1
f 6/4/2 27/5/2 25/6/2
f 12/7/3 40/8/3 7/9/3
f 9/10/1 10/11/1 19/12/1
f 39/13/4 13/14/4 8/15/4
f 8/16/4 17/17/4 19/18/4
f 13/19/5 4/20/5 30/21/5
f 15/22/5 11/23/5 31/24/5
f 8/16/4 13/25/4 21/26/4
f 23/27/5 22/28/5 17/29/5
f 22/28/5 18/30/5 19/31/5
f 16/32/5 22/28/5 23/27/5
f 15/33/6 23/34/6 21/35/6
f 7/36/3 16/37/3 20/38/3
f 9/39/3 18/40/3 16/37/3
f 12/41/6 20/42/6 23/34/6
f 43/43/2 47/44/2 46/45/2
f 1/46/4 44/47/4 46/48/4
f 33/49/2 45/50/2 44/51/2
f 43/6/3 47/52/3 45/50/3
f 49/53/5 54/54/5 53/55/5
f 49/56/3 54/57/3 52/58/3
f 42/59/3 53/60/3 51/61/3
f 2/62/2 51/63/2 52/64/2
f 50/23/4 62/65/4 57/66/4
f 48/23/4 61/65/4 58/67/4
f 4/20/5 56/68/5 57/66/5
f 3/69/3 55/70/3 60/71/3
f 35/72/4 59/73/4 56/74/4
f 50/75/2 62/76/2 59/77/2
f 48/78/5 61/79/5 60/80/5
f 31/24/5 58/67/5 55/81/5
f 60/82/6 55/83/6 58/84/6
f 62/85/6 57/86/6 56/87/6
f 47/88/6 46/89/6 44/90/6
f 51/91/6 53/92/6 54/93/6
f 33/94/6 27/95/6 49/96/6
f 36/97/1 42/98/1 49/96/1
f 41/99/1 35/100/1 50/101/1
f 48/102/6 31/103/6 30/104/6
f 49/96/6 48/102/6 50/101/6
f 9/105/2 7/106/2 8/107/2
f 6/3/1 5/108/1 14/1/1
f 8/109/1 14/1/1 5/108/1
f 33/49/2 1/110/2 5/111/2
f 5/111/2 6/4/2 25/6/2
f 2/62/2 27/5/2 6/4/2
f 25/6/2 33/49/2 5/111/2
f 42/59/3 2/112/3 6/113/3
f 6/113/3 7/9/3 26/114/3
f 12/7/3 3/69/3 36/115/3
f 36/115/3 29/116/3 12/7/3
f 40/8/3 26/114/3 7/9/3
f 38/117/3 34/118/3 6/113/3
f 42/59/3 6/113/3 34/118/3
f 12/7/3 29/116/3 40/8/3
f 26/114/3 38/117/3 6/113/3
f 18/119/1 9/10/1 19/12/1
f 8/15/4 5/120/4 24/121/4
f 1/46/4 41/122/4 5/120/4
f 32/123/4 37/124/4 5/120/4
f 24/121/4 39/13/4 8/15/4
f 28/125/4 35/72/4 13/14/4
f 4/126/4 13/14/4 35/72/4
f 5/120/4 41/122/4 32/123/4
f 37/124/4 24/121/4 5/120/4
f 28/125/4 13/14/4 39/13/4
f 10/127/4 8/16/4 19/18/4
f 30/21/5 11/23/5 15/22/5
f 15/22/5 13/19/5 30/21/5
f 31/24/5 3/128/5 12/129/5
f 12/129/5 15/22/5 31/24/5
f 17/17/4 8/16/4 21/26/4
f 21/130/5 23/27/5 17/29/5
f 19/31/5 17/29/5 22/28/5
f 22/28/5 16/32/5 18/30/5
f 20/131/5 16/32/5 23/27/5
f 13/132/6 15/33/6 21/35/6
f 12/133/3 7/36/3 20/38/3
f 7/36/3 9/39/3 16/37/3
f 15/33/6 12/41/6 23/34/6
f 41/134/2 43/43/2 46/45/2
f 41/122/4 1/46/4 46/48/4
f 1/110/2 33/49/2 44/51/2
f 33/49/3 43/6/3 45/50/3
f 42/135/5 49/53/5 53/55/5
f 27/136/3 49/56/3 52/58/3
f 2/112/3 42/59/3 51/61/3
f 27/5/2 2/62/2 52/64/2
f 30/21/4 50/23/4 57/66/4
f 31/24/4 48/23/4 58/67/4
f 30/21/5 4/20/5 57/66/5
f 36/115/3 3/69/3 60/71/3
f 4/126/4 35/72/4 56/74/4
f 35/137/2 50/75/2 59/77/2
f 36/138/5 48/78/5 60/80/5
f 3/128/5 31/24/5 55/81/5
f 61/139/6 60/82/6 58/84/6
f 59/140/6 62/85/6 56/87/6
f 45/141/6 47/88/6 44/90/6
f 52/142/6 51/91/6 54/93/6
f 43/143/6 33/94/6 49/96/6
f 48/102/1 36/97/1 49/96/1
f 43/143/1 41/99/1 50/101/1
f 50/101/6 48/102/6 30/104/6
f 43/143/6 49/96/6 50/101/6
f 10/144/2 9/105/2 8/107/2
