# Blender v2.76 (sub 0) OBJ File: 'sign2.blend'
# www.blender.org
mtllib sign2.mtl
o Cube
v -0.201476 -0.654798 -0.201477
v 0.201477 -0.654798 -0.201476
v 0.201476 -0.654798 0.201476
v -0.201476 -0.654798 0.201476
v -0.201476 0.151107 -0.201477
v 0.201477 0.151107 -0.201476
v 0.201476 0.151107 0.201476
v -0.201476 0.151107 0.201476
v -0.201476 1.158489 -0.201477
v 0.201477 1.158489 -0.201476
v 0.201476 1.158489 0.201476
v -0.201476 1.158489 0.201476
v -0.201476 0.151107 -1.208859
v 0.201477 0.151107 -1.208858
v -0.201476 1.158489 -1.208859
v 0.201477 1.158489 -1.208858
v 0.201476 0.151107 1.208858
v -0.201477 0.151107 1.208858
v 0.201476 1.158489 1.208858
v -0.201477 1.158489 1.208858
vt 0.480525 0.012714
vt 0.629108 0.013842
vt 0.627980 0.162425
vt 0.000245 0.851168
vt 0.371713 0.851168
vt 0.371713 0.999756
vt 0.478269 0.309880
vt 0.329686 0.308752
vt 0.330814 0.160169
vt 0.181103 0.307624
vt 0.182231 0.159041
vt 0.032520 0.306496
vt 0.479397 0.161297
vt 0.626852 0.311008
vt 0.371712 0.850679
vt 0.371712 0.702092
vt 0.520300 0.702092
vt 0.520300 0.329646
vt 0.891768 0.329646
vt 0.891768 0.515380
vt 0.520300 0.515380
vt 0.371713 0.515380
vt 0.520300 0.515869
vt 0.520300 0.701603
vt 0.371713 0.701603
vt 0.807144 0.000245
vt 0.807144 0.185979
vt 0.658557 0.185979
vt 0.891768 0.515869
vt 0.891768 0.701603
vt 0.000244 0.515380
vt 0.000244 0.329646
vt 0.520300 0.850679
vt 0.891768 0.702092
vt 0.956221 0.000245
vt 0.956221 0.185979
vt 0.807633 0.185979
vt 0.000245 0.850679
vt 0.743670 0.999756
vt 0.372202 0.999756
vt 0.372202 0.851168
vt 0.000245 0.701603
vt 0.000245 0.515869
vt 0.000245 0.999756
vt 0.033648 0.157913
vt 0.371713 0.329646
vt 0.371713 0.515869
vt 0.658557 0.000245
vt 0.891768 0.850679
vt 0.807633 0.000245
vt 0.000245 0.702092
vt 0.743670 0.851168
vn 0.000000 -1.000000 0.000000
vn 0.000000 0.000000 -1.000000
vn 1.000000 0.000000 0.000000
vn -0.000000 -0.000000 1.000000
vn -1.000000 0.000000 -0.000000
vn 0.000000 1.000000 0.000000
usemtl Material
s off
f 2/1/1 3/2/1 4/3/1
f 5/4/1 13/5/1 14/6/1
f 5/7/2 6/8/2 2/9/2
f 6/8/3 7/10/3 3/11/3
f 3/11/4 7/10/4 8/12/4
f 1/13/5 4/3/5 8/14/5
f 12/15/6 11/16/6 10/17/6
f 8/18/5 18/19/5 20/20/5
f 8/18/5 12/21/5 9/22/5
f 6/23/3 10/24/3 11/25/3
f 13/26/2 15/27/2 16/28/2
f 6/23/3 14/29/3 16/30/3
f 9/22/5 15/31/5 13/32/5
f 9/33/6 10/17/6 16/34/6
f 17/35/4 19/36/4 20/37/4
f 11/16/6 12/15/6 20/38/6
f 7/39/1 17/40/1 18/41/1
f 11/25/3 19/42/3 17/43/3
f 1/13/1 2/1/1 4/3/1
f 6/44/1 5/4/1 14/6/1
f 1/13/2 5/7/2 2/9/2
f 2/9/3 6/8/3 3/11/3
f 4/45/4 3/11/4 8/12/4
f 5/7/5 1/13/5 8/14/5
f 9/33/6 12/15/6 10/17/6
f 12/21/5 8/18/5 20/20/5
f 5/46/5 8/18/5 9/22/5
f 7/47/3 6/23/3 11/25/3
f 14/48/2 13/26/2 16/28/2
f 10/24/3 6/23/3 16/30/3
f 5/46/5 9/22/5 13/32/5
f 15/49/6 9/33/6 16/34/6
f 18/50/4 17/35/4 20/37/4
f 19/51/6 11/16/6 20/38/6
f 8/52/1 7/39/1 18/41/1
f 7/47/3 11/25/3 17/43/3
